<svg width="340" height="340" viewBox="0 0 340 340" fill="none" xmlns="http://www.w3.org/2000/svg">
<rect width="340" height="340" rx="15" fill="#D9D9D9"/>
<path d="M104.298 252.545H107.989V263.881C107.989 265.153 107.685 266.267 107.077 267.222C106.474 268.176 105.631 268.92 104.545 269.455C103.46 269.983 102.196 270.247 100.753 270.247C99.304 270.247 98.0369 269.983 96.9517 269.455C95.8665 268.92 95.0227 268.176 94.4205 267.222C93.8182 266.267 93.517 265.153 93.517 263.881V252.545H97.2074V263.565C97.2074 264.23 97.3523 264.821 97.642 265.338C97.9375 265.855 98.3523 266.261 98.8864 266.557C99.4205 266.852 100.043 267 100.753 267C101.469 267 102.091 266.852 102.619 266.557C103.153 266.261 103.565 265.855 103.855 265.338C104.151 264.821 104.298 264.23 104.298 263.565V252.545ZM110.957 274.909V256.909H114.536V259.108H114.698C114.857 258.756 115.087 258.398 115.388 258.034C115.695 257.665 116.093 257.358 116.582 257.114C117.076 256.864 117.69 256.739 118.423 256.739C119.377 256.739 120.258 256.989 121.065 257.489C121.871 257.983 122.516 258.73 122.999 259.73C123.482 260.724 123.724 261.972 123.724 263.472C123.724 264.932 123.488 266.165 123.016 267.17C122.55 268.17 121.914 268.929 121.107 269.446C120.306 269.957 119.408 270.213 118.414 270.213C117.71 270.213 117.11 270.097 116.616 269.864C116.127 269.631 115.727 269.338 115.414 268.986C115.102 268.628 114.863 268.267 114.698 267.903H114.587V274.909H110.957ZM114.511 263.455C114.511 264.233 114.619 264.912 114.835 265.491C115.05 266.071 115.363 266.523 115.772 266.847C116.181 267.165 116.678 267.324 117.263 267.324C117.854 267.324 118.354 267.162 118.763 266.838C119.173 266.509 119.482 266.054 119.692 265.474C119.908 264.889 120.016 264.216 120.016 263.455C120.016 262.699 119.911 262.034 119.701 261.46C119.491 260.886 119.181 260.437 118.772 260.114C118.363 259.79 117.86 259.628 117.263 259.628C116.673 259.628 116.173 259.784 115.763 260.097C115.36 260.409 115.05 260.852 114.835 261.426C114.619 262 114.511 262.676 114.511 263.455ZM129.775 252.545V270H126.144V252.545H129.775ZM138.598 270.256C137.274 270.256 136.129 269.974 135.163 269.412C134.203 268.844 133.462 268.054 132.939 267.043C132.416 266.026 132.155 264.847 132.155 263.506C132.155 262.153 132.416 260.972 132.939 259.96C133.462 258.943 134.203 258.153 135.163 257.591C136.129 257.023 137.274 256.739 138.598 256.739C139.922 256.739 141.064 257.023 142.024 257.591C142.99 258.153 143.734 258.943 144.257 259.96C144.78 260.972 145.041 262.153 145.041 263.506C145.041 264.847 144.78 266.026 144.257 267.043C143.734 268.054 142.99 268.844 142.024 269.412C141.064 269.974 139.922 270.256 138.598 270.256ZM138.615 267.443C139.217 267.443 139.72 267.273 140.124 266.932C140.527 266.585 140.831 266.114 141.036 265.517C141.246 264.92 141.351 264.241 141.351 263.48C141.351 262.719 141.246 262.04 141.036 261.443C140.831 260.847 140.527 260.375 140.124 260.028C139.72 259.682 139.217 259.509 138.615 259.509C138.007 259.509 137.496 259.682 137.081 260.028C136.672 260.375 136.362 260.847 136.152 261.443C135.947 262.04 135.845 262.719 135.845 263.48C135.845 264.241 135.947 264.92 136.152 265.517C136.362 266.114 136.672 266.585 137.081 266.932C137.496 267.273 138.007 267.443 138.615 267.443ZM151.135 270.247C150.3 270.247 149.555 270.102 148.902 269.812C148.249 269.517 147.732 269.082 147.351 268.509C146.976 267.929 146.788 267.207 146.788 266.344C146.788 265.616 146.922 265.006 147.189 264.511C147.456 264.017 147.82 263.619 148.28 263.318C148.74 263.017 149.263 262.79 149.848 262.636C150.439 262.483 151.058 262.375 151.706 262.312C152.467 262.233 153.081 262.159 153.547 262.091C154.013 262.017 154.351 261.909 154.561 261.767C154.771 261.625 154.876 261.415 154.876 261.136V261.085C154.876 260.545 154.706 260.128 154.365 259.832C154.03 259.537 153.553 259.389 152.933 259.389C152.28 259.389 151.76 259.534 151.374 259.824C150.987 260.108 150.732 260.466 150.607 260.898L147.249 260.625C147.419 259.83 147.754 259.142 148.254 258.562C148.754 257.977 149.399 257.528 150.189 257.216C150.984 256.898 151.905 256.739 152.95 256.739C153.678 256.739 154.374 256.824 155.038 256.994C155.709 257.165 156.303 257.429 156.82 257.787C157.342 258.145 157.754 258.605 158.055 259.168C158.357 259.724 158.507 260.392 158.507 261.17V270H155.064V268.185H154.962C154.751 268.594 154.47 268.955 154.118 269.267C153.766 269.574 153.342 269.815 152.848 269.991C152.354 270.162 151.783 270.247 151.135 270.247ZM152.175 267.741C152.709 267.741 153.18 267.636 153.589 267.426C153.999 267.21 154.32 266.92 154.553 266.557C154.786 266.193 154.902 265.781 154.902 265.321V263.932C154.788 264.006 154.632 264.074 154.433 264.136C154.24 264.193 154.021 264.247 153.777 264.298C153.533 264.344 153.288 264.386 153.044 264.426C152.8 264.46 152.578 264.491 152.379 264.52C151.953 264.582 151.581 264.682 151.263 264.818C150.945 264.955 150.697 265.139 150.521 265.372C150.345 265.599 150.257 265.884 150.257 266.224C150.257 266.719 150.436 267.097 150.794 267.358C151.158 267.614 151.618 267.741 152.175 267.741ZM166.148 270.213C165.153 270.213 164.253 269.957 163.446 269.446C162.645 268.929 162.009 268.17 161.537 267.17C161.071 266.165 160.838 264.932 160.838 263.472C160.838 261.972 161.08 260.724 161.562 259.73C162.045 258.73 162.688 257.983 163.489 257.489C164.295 256.989 165.179 256.739 166.139 256.739C166.872 256.739 167.483 256.864 167.972 257.114C168.466 257.358 168.864 257.665 169.165 258.034C169.472 258.398 169.705 258.756 169.864 259.108H169.974V252.545H173.597V270H170.017V267.903H169.864C169.693 268.267 169.452 268.628 169.139 268.986C168.832 269.338 168.432 269.631 167.938 269.864C167.449 270.097 166.852 270.213 166.148 270.213ZM167.298 267.324C167.884 267.324 168.378 267.165 168.781 266.847C169.19 266.523 169.503 266.071 169.719 265.491C169.94 264.912 170.051 264.233 170.051 263.455C170.051 262.676 169.943 262 169.727 261.426C169.511 260.852 169.199 260.409 168.79 260.097C168.381 259.784 167.884 259.628 167.298 259.628C166.702 259.628 166.199 259.79 165.79 260.114C165.381 260.437 165.071 260.886 164.861 261.46C164.651 262.034 164.545 262.699 164.545 263.455C164.545 264.216 164.651 264.889 164.861 265.474C165.077 266.054 165.386 266.509 165.79 266.838C166.199 267.162 166.702 267.324 167.298 267.324ZM185.895 252.545V270H182.205V252.545H185.895ZM188.863 270V256.909H192.323V259.219H192.477C192.749 258.452 193.204 257.847 193.84 257.403C194.477 256.96 195.238 256.739 196.124 256.739C197.022 256.739 197.786 256.963 198.417 257.412C199.048 257.855 199.468 258.457 199.678 259.219H199.815C200.082 258.469 200.565 257.869 201.263 257.42C201.968 256.966 202.8 256.739 203.761 256.739C204.982 256.739 205.974 257.128 206.735 257.906C207.502 258.679 207.886 259.776 207.886 261.196V270H204.263V261.912C204.263 261.185 204.07 260.639 203.684 260.276C203.298 259.912 202.815 259.73 202.235 259.73C201.576 259.73 201.062 259.94 200.692 260.361C200.323 260.776 200.138 261.324 200.138 262.006V270H196.619V261.835C196.619 261.193 196.434 260.682 196.065 260.301C195.701 259.92 195.221 259.73 194.624 259.73C194.221 259.73 193.857 259.832 193.533 260.037C193.215 260.236 192.962 260.517 192.775 260.881C192.587 261.239 192.494 261.659 192.494 262.142V270H188.863ZM214.487 270.247C213.651 270.247 212.907 270.102 212.254 269.812C211.6 269.517 211.083 269.082 210.702 268.509C210.327 267.929 210.14 267.207 210.14 266.344C210.14 265.616 210.273 265.006 210.54 264.511C210.808 264.017 211.171 263.619 211.631 263.318C212.092 263.017 212.614 262.79 213.2 262.636C213.79 262.483 214.41 262.375 215.058 262.312C215.819 262.233 216.433 262.159 216.898 262.091C217.364 262.017 217.702 261.909 217.913 261.767C218.123 261.625 218.228 261.415 218.228 261.136V261.085C218.228 260.545 218.058 260.128 217.717 259.832C217.381 259.537 216.904 259.389 216.285 259.389C215.631 259.389 215.112 259.534 214.725 259.824C214.339 260.108 214.083 260.466 213.958 260.898L210.6 260.625C210.771 259.83 211.106 259.142 211.606 258.562C212.106 257.977 212.751 257.528 213.54 257.216C214.336 256.898 215.256 256.739 216.302 256.739C217.029 256.739 217.725 256.824 218.39 256.994C219.06 257.165 219.654 257.429 220.171 257.787C220.694 258.145 221.106 258.605 221.407 259.168C221.708 259.724 221.859 260.392 221.859 261.17V270H218.415V268.185H218.313C218.103 268.594 217.822 268.955 217.469 269.267C217.117 269.574 216.694 269.815 216.2 269.991C215.705 270.162 215.134 270.247 214.487 270.247ZM215.526 267.741C216.06 267.741 216.532 267.636 216.941 267.426C217.35 267.21 217.671 266.92 217.904 266.557C218.137 266.193 218.254 265.781 218.254 265.321V263.932C218.14 264.006 217.984 264.074 217.785 264.136C217.592 264.193 217.373 264.247 217.129 264.298C216.884 264.344 216.64 264.386 216.396 264.426C216.151 264.46 215.93 264.491 215.731 264.52C215.305 264.582 214.933 264.682 214.614 264.818C214.296 264.955 214.049 265.139 213.873 265.372C213.697 265.599 213.609 265.884 213.609 266.224C213.609 266.719 213.788 267.097 214.146 267.358C214.509 267.614 214.969 267.741 215.526 267.741ZM230.573 275.182C229.397 275.182 228.388 275.02 227.548 274.696C226.712 274.378 226.048 273.943 225.553 273.392C225.059 272.841 224.738 272.222 224.59 271.534L227.948 271.082C228.05 271.344 228.212 271.588 228.434 271.815C228.656 272.043 228.948 272.224 229.312 272.361C229.681 272.503 230.13 272.574 230.658 272.574C231.448 272.574 232.099 272.381 232.61 271.994C233.127 271.614 233.386 270.974 233.386 270.077V267.682H233.232C233.073 268.045 232.835 268.389 232.516 268.713C232.198 269.037 231.789 269.301 231.289 269.506C230.789 269.71 230.192 269.812 229.499 269.812C228.516 269.812 227.621 269.585 226.815 269.131C226.013 268.67 225.374 267.969 224.897 267.026C224.425 266.077 224.19 264.878 224.19 263.429C224.19 261.946 224.431 260.707 224.914 259.713C225.397 258.719 226.039 257.974 226.84 257.48C227.647 256.986 228.531 256.739 229.491 256.739C230.224 256.739 230.837 256.864 231.332 257.114C231.826 257.358 232.224 257.665 232.525 258.034C232.832 258.398 233.067 258.756 233.232 259.108H233.369V256.909H236.974V270.128C236.974 271.241 236.701 272.173 236.156 272.923C235.61 273.673 234.854 274.236 233.888 274.611C232.928 274.991 231.823 275.182 230.573 275.182ZM230.65 267.085C231.235 267.085 231.729 266.94 232.133 266.651C232.542 266.355 232.854 265.935 233.07 265.389C233.292 264.838 233.403 264.179 233.403 263.412C233.403 262.645 233.295 261.98 233.079 261.418C232.863 260.849 232.55 260.409 232.141 260.097C231.732 259.784 231.235 259.628 230.65 259.628C230.053 259.628 229.55 259.79 229.141 260.114C228.732 260.432 228.423 260.875 228.212 261.443C228.002 262.011 227.897 262.668 227.897 263.412C227.897 264.168 228.002 264.821 228.212 265.372C228.428 265.918 228.738 266.341 229.141 266.642C229.55 266.937 230.053 267.085 230.65 267.085ZM245.829 270.256C244.482 270.256 243.323 269.983 242.352 269.438C241.386 268.886 240.641 268.108 240.119 267.102C239.596 266.091 239.335 264.895 239.335 263.514C239.335 262.168 239.596 260.986 240.119 259.969C240.641 258.952 241.377 258.159 242.326 257.591C243.281 257.023 244.4 256.739 245.684 256.739C246.548 256.739 247.352 256.878 248.096 257.156C248.846 257.429 249.499 257.841 250.056 258.392C250.619 258.943 251.056 259.636 251.369 260.472C251.681 261.301 251.837 262.273 251.837 263.386V264.384H240.783V262.134H248.42C248.42 261.611 248.306 261.148 248.079 260.744C247.852 260.341 247.536 260.026 247.133 259.798C246.735 259.565 246.272 259.449 245.744 259.449C245.192 259.449 244.704 259.577 244.278 259.832C243.857 260.082 243.528 260.42 243.289 260.847C243.05 261.267 242.928 261.736 242.923 262.253V264.392C242.923 265.04 243.042 265.599 243.281 266.071C243.525 266.543 243.869 266.906 244.312 267.162C244.755 267.418 245.281 267.545 245.888 267.545C246.292 267.545 246.661 267.489 246.996 267.375C247.332 267.261 247.619 267.091 247.857 266.864C248.096 266.636 248.278 266.358 248.403 266.028L251.761 266.25C251.59 267.057 251.241 267.761 250.712 268.364C250.19 268.96 249.513 269.426 248.684 269.761C247.86 270.091 246.908 270.256 245.829 270.256Z" fill="#202020"/>
<rect x="69" y="158.071" width="203" height="69" rx="34.5" fill="#C2C2C2"/>
<rect x="118.314" y="230.157" width="113.51" height="97.6815" rx="48.8407" transform="rotate(-115 118.314 230.157)" fill="#C2C2C2"/>
<rect x="264.9" y="150.994" width="113.51" height="81.5466" rx="40.7733" transform="rotate(131 264.9 150.994)" fill="#C2C2C2"/>
<path d="M171.768 148.303C170.791 147.326 169.209 147.326 168.232 148.303L152.322 164.213C151.346 165.189 151.346 166.772 152.322 167.748C153.299 168.725 154.882 168.725 155.858 167.748L170 153.606L184.142 167.748C185.118 168.725 186.701 168.725 187.678 167.748C188.654 166.772 188.654 165.189 187.678 164.213L171.768 148.303ZM172.5 212.071V150.071H167.5V212.071H172.5Z" fill="#9C9C9C"/>
</svg>
