<svg width="292" height="61" viewBox="0 0 292 61" fill="none" xmlns="http://www.w3.org/2000/svg">
<path d="M6.048 37.128C6.408 36.336 6.84 35.316 7.344 34.068C7.848 32.82 8.376 31.476 8.928 30.036C9.48 28.572 10.044 27.084 10.62 25.572C11.196 24.036 11.736 22.584 12.24 21.216C12.744 19.848 13.176 18.624 13.536 17.544C13.92 16.464 14.196 15.636 14.364 15.06C12.852 15.684 11.556 16.632 10.476 17.904C9.396 19.176 8.58 20.772 8.028 22.692C7.476 22.5 6.972 22.164 6.516 21.684C6.06 21.18 5.76 20.556 5.616 19.812C5.856 18.708 6.3 17.7 6.948 16.788C7.62 15.876 8.46 15.096 9.468 14.448C10.476 13.8 11.64 13.308 12.96 12.972C14.28 12.612 15.696 12.432 17.208 12.432C19.128 12.432 20.892 12.72 22.5 13.296C24.108 13.848 25.488 14.628 26.64 15.636C27.792 16.644 28.692 17.856 29.34 19.272C29.988 20.688 30.312 22.26 30.312 23.988C30.312 26.34 29.88 28.584 29.016 30.72C28.152 32.856 26.976 34.74 25.488 36.372C24.024 38.004 22.32 39.3 20.376 40.26C18.432 41.244 16.392 41.736 14.256 41.736C12.288 41.736 10.596 41.34 9.18 40.548C7.788 39.78 6.744 38.64 6.048 37.128ZM18.756 14.232C17.556 14.232 16.416 14.4 15.336 14.736C16.392 15.12 17.268 15.528 17.964 15.96C18.66 16.368 19.14 16.692 19.404 16.932C19.212 17.196 18.924 17.664 18.54 18.336C18.18 19.008 17.748 19.824 17.244 20.784C16.764 21.744 16.248 22.8 15.696 23.952C15.144 25.08 14.604 26.244 14.076 27.444C12.708 30.492 11.712 32.892 11.088 34.644C10.488 36.396 10.188 37.608 10.188 38.28C10.524 38.4 10.932 38.484 11.412 38.532C11.892 38.58 12.408 38.604 12.96 38.604C14.904 38.604 16.74 38.16 18.468 37.272C20.22 36.36 21.744 35.148 23.04 33.636C24.36 32.124 25.392 30.372 26.136 28.38C26.904 26.364 27.288 24.252 27.288 22.044C27.288 19.572 26.52 17.652 24.984 16.284C23.448 14.916 21.372 14.232 18.756 14.232ZM35.5838 40.26C34.2158 40.116 33.1238 39.516 32.3078 38.46C31.4918 37.404 31.0838 36.06 31.0838 34.428C31.0838 33.468 31.2278 32.472 31.5158 31.44C31.8038 30.408 32.2118 29.412 32.7398 28.452C33.2678 27.468 33.8918 26.544 34.6118 25.68C35.3318 24.816 36.1118 24.072 36.9518 23.448C38.2718 22.464 39.5078 21.972 40.6598 21.972C41.4278 22.38 42.1838 23.232 42.9278 24.528C43.0478 24.528 43.1558 24.528 43.2518 24.528C43.3478 24.504 43.4558 24.492 43.5758 24.492C44.8478 24.492 45.4838 25.62 45.4838 27.876C45.4838 29.388 45.2318 30.828 44.7278 32.196C44.2478 33.54 43.5638 34.764 42.6758 35.868C41.8118 36.972 40.7678 37.908 39.5438 38.676C38.3438 39.42 37.0238 39.948 35.5838 40.26ZM37.4198 28.92C37.0118 29.472 36.6278 30.072 36.2678 30.72C35.9078 31.368 35.5958 32.028 35.3318 32.7C35.0678 33.348 34.8638 33.984 34.7198 34.608C34.5758 35.208 34.5038 35.748 34.5038 36.228C34.5038 36.804 34.5998 37.356 34.7918 37.884C34.9838 38.412 35.1998 38.712 35.4398 38.784C36.5198 38.544 37.5038 38.1 38.3918 37.452C39.3038 36.78 40.0838 35.952 40.7318 34.968C41.4038 33.984 41.9198 32.868 42.2798 31.62C42.6638 30.372 42.8558 29.04 42.8558 27.624C42.8558 27 42.8198 26.508 42.7478 26.148C42.6758 25.788 42.5558 25.476 42.3878 25.212C41.3318 25.524 40.3838 26.028 39.5438 26.724C38.7278 27.42 38.0198 28.152 37.4198 28.92ZM39.9544 49.728C39.9544 49.584 40.0024 49.452 40.0984 49.332C40.1944 49.212 40.3024 49.092 40.4224 48.972C40.7104 49.236 40.9624 49.44 41.1784 49.584C41.3704 49.728 41.5624 49.848 41.7544 49.944C41.9224 50.04 42.1024 50.1 42.2944 50.124C42.4864 50.148 42.7144 50.16 42.9784 50.16C44.2264 50.16 45.4144 49.824 46.5424 49.152C47.6704 48.504 48.7264 47.556 49.7104 46.308C50.7184 45.06 51.6304 43.536 52.4464 41.736C53.2624 39.936 53.9824 37.896 54.6064 35.616C54.3184 35.904 53.9584 36.228 53.5264 36.588C53.1184 36.924 52.6864 37.248 52.2304 37.56C51.7744 37.872 51.3184 38.16 50.8624 38.424C50.4304 38.688 50.0584 38.88 49.7464 39C49.3384 38.928 48.9544 38.76 48.5944 38.496C48.2584 38.208 47.9584 37.86 47.6944 37.452C47.4304 37.044 47.2264 36.588 47.0824 36.084C46.9384 35.556 46.8664 35.004 46.8664 34.428C46.8664 33.492 47.0344 32.532 47.3704 31.548C47.7304 30.564 48.1984 29.604 48.7744 28.668C49.3504 27.708 50.0224 26.808 50.7904 25.968C51.5824 25.128 52.4104 24.396 53.2744 23.772C54.1624 23.148 55.0504 22.656 55.9384 22.296C56.8504 21.912 57.7384 21.72 58.6024 21.72C59.4424 21.72 60.0664 21.9 60.4744 22.26C60.9064 22.596 61.2184 23.184 61.4104 24.024C61.1464 23.88 60.8104 23.808 60.4024 23.808C59.8264 23.808 59.1544 24.036 58.3864 24.492C57.6424 24.948 56.8744 25.548 56.0824 26.292C55.3144 27.012 54.5464 27.852 53.7784 28.812C53.0104 29.748 52.3264 30.708 51.7264 31.692C51.1504 32.676 50.6704 33.636 50.2864 34.572C49.9264 35.508 49.7464 36.348 49.7464 37.092C49.7464 37.26 49.7584 37.368 49.7824 37.416C49.8064 37.44 49.8424 37.452 49.8904 37.452C50.1064 37.452 50.3944 37.332 50.7544 37.092C51.1384 36.852 51.5584 36.552 52.0144 36.192C52.4944 35.808 52.9864 35.376 53.4904 34.896C53.9944 34.392 54.4744 33.888 54.9304 33.384C55.9624 32.232 56.8984 30.948 57.7384 29.532C58.6024 28.092 59.2864 26.7 59.7904 25.356C60.4384 25.404 61.0144 25.512 61.5184 25.68C62.0224 25.848 62.3704 26.028 62.5624 26.22C61.7464 28.092 61.0864 29.664 60.5824 30.936C60.1024 32.208 59.6824 33.336 59.3224 34.32C58.6744 36.048 58.0624 37.62 57.4864 39.036C56.9344 40.476 56.3584 41.796 55.7584 42.996C55.1824 44.22 54.5464 45.348 53.8504 46.38C53.1784 47.436 52.4104 48.444 51.5464 49.404C51.1384 49.86 50.6704 50.256 50.1424 50.592C49.6384 50.952 49.1104 51.252 48.5584 51.492C48.0304 51.732 47.5024 51.912 46.9744 52.032C46.4704 52.152 46.0024 52.212 45.5704 52.212C44.9944 52.212 44.4064 52.14 43.8064 51.996C43.2064 51.876 42.6544 51.696 42.1504 51.456C41.6224 51.24 41.1664 50.976 40.7824 50.664C40.3984 50.376 40.1224 50.064 39.9544 49.728ZM75.8534 24.672C75.8294 25.128 75.7454 25.608 75.6014 26.112C75.4814 26.592 75.3254 27.036 75.1334 27.444C74.9414 27.828 74.7374 28.152 74.5214 28.416C74.3054 28.68 74.1014 28.812 73.9094 28.812C73.6454 28.788 73.4894 28.608 73.4414 28.272C73.4414 28.2 73.4654 28.092 73.5134 27.948C73.5854 27.78 73.6574 27.6 73.7294 27.408C73.8014 27.216 73.8614 27.024 73.9094 26.832C73.9814 26.64 74.0174 26.472 74.0174 26.328C74.0174 25.992 73.9334 25.716 73.7654 25.5C73.6214 25.26 73.4174 25.14 73.1534 25.14C72.1934 25.14 71.4614 25.74 70.9574 26.94C70.4534 28.14 70.2014 29.904 70.2014 32.232C70.2014 32.472 70.2134 32.616 70.2374 32.664C70.7414 32.64 71.1854 32.628 71.5694 32.628C71.9774 32.604 72.3734 32.592 72.7574 32.592C72.7814 32.64 72.7934 32.736 72.7934 32.88C72.7934 33.096 72.7454 33.252 72.6494 33.348C72.0974 33.468 71.6534 33.576 71.3174 33.672C71.0054 33.744 70.7654 33.816 70.5974 33.888C70.4294 33.96 70.3214 34.044 70.2734 34.14C70.2494 34.212 70.2374 34.32 70.2374 34.464C70.2374 34.656 70.2374 34.848 70.2374 35.04C70.2614 35.232 70.2734 35.472 70.2734 35.76C70.2734 37.776 69.7214 39.396 68.6174 40.62C67.5374 41.844 66.0254 42.552 64.0814 42.744C63.7454 42.72 63.3974 42.624 63.0374 42.456C62.6774 42.288 62.3294 42.072 61.9934 41.808C61.6814 41.544 61.4054 41.244 61.1654 40.908C60.9254 40.596 60.7574 40.272 60.6614 39.936C60.6614 39.024 60.8534 38.16 61.2374 37.344C61.6214 36.504 62.1374 35.772 62.7854 35.148C63.4574 34.5 64.2374 33.984 65.1254 33.6C66.0374 33.192 67.0214 32.952 68.0774 32.88C68.0774 32.28 68.0174 31.692 67.8974 31.116C67.7774 30.54 67.6454 29.988 67.5014 29.46C67.3814 28.908 67.2614 28.38 67.1414 27.876C67.0214 27.348 66.9614 26.832 66.9614 26.328C66.9614 25.68 67.0934 25.044 67.3574 24.42C67.6214 23.772 67.9694 23.184 68.4014 22.656C68.8334 22.104 69.3374 21.636 69.9134 21.252C70.4894 20.868 71.0894 20.604 71.7134 20.46C71.9774 20.532 72.3254 20.748 72.7574 21.108C73.2134 21.444 73.6574 21.828 74.0894 22.26C74.5214 22.692 74.9054 23.136 75.2414 23.592C75.5774 24.024 75.7814 24.384 75.8534 24.672ZM63.9734 41.088C64.5494 40.848 65.0894 40.5 65.5934 40.044C66.1214 39.588 66.5774 39.072 66.9614 38.496C67.3454 37.92 67.6454 37.308 67.8614 36.66C68.1014 36.012 68.2214 35.376 68.2214 34.752C67.7414 34.824 67.2134 35.052 66.6374 35.436C66.0614 35.796 65.5214 36.24 65.0174 36.768C64.5134 37.272 64.0934 37.8 63.7574 38.352C63.4214 38.904 63.2534 39.384 63.2534 39.792C63.2534 40.32 63.4934 40.752 63.9734 41.088ZM86.0768 31.944C86.0768 30.264 86.2688 28.62 86.6528 27.012C87.0608 25.38 87.6248 23.844 88.3448 22.404C89.0648 20.94 89.9168 19.608 90.9008 18.408C91.9088 17.184 93.0008 16.128 94.1768 15.24C95.3768 14.352 96.6488 13.668 97.9928 13.188C99.3368 12.684 100.717 12.432 102.133 12.432C103.789 12.432 105.073 12.78 105.985 13.476C106.921 14.172 107.389 15.144 107.389 16.392C107.389 16.872 107.317 17.364 107.173 17.868C107.053 18.372 106.861 18.876 106.597 19.38C106.357 19.86 106.069 20.328 105.733 20.784C105.397 21.24 105.025 21.636 104.617 21.972C103.993 21.876 103.453 21.6 102.997 21.144C102.541 20.664 102.253 20.112 102.133 19.488C102.973 18.792 103.633 18.072 104.113 17.328C104.617 16.56 104.869 15.864 104.869 15.24C104.869 14.184 104.209 13.656 102.889 13.656C102.337 13.656 101.761 13.776 101.161 14.016C100.585 14.232 99.9968 14.544 99.3968 14.952C98.7968 15.36 98.2088 15.852 97.6328 16.428C97.0808 17.004 96.5648 17.64 96.0848 18.336C92.7488 23.136 91.0808 28.044 91.0808 33.06C91.0808 34.836 91.3568 36.264 91.9088 37.344C92.4608 38.424 93.1928 39.06 94.1048 39.252C95.1368 39.012 96.4448 38.352 98.0288 37.272C99.6128 36.192 101.341 34.788 103.213 33.06C103.453 33.3 103.597 33.552 103.645 33.816C102.949 34.728 102.229 35.604 101.485 36.444C100.741 37.284 99.9968 38.052 99.2528 38.748C98.5328 39.444 97.8128 40.056 97.0928 40.584C96.3968 41.112 95.7488 41.52 95.1488 41.808C92.1728 41.76 89.9168 40.908 88.3808 39.252C86.8448 37.596 86.0768 35.16 86.0768 31.944ZM118.603 24.456C118.843 24.456 119.119 24.504 119.431 24.6C119.767 24.672 120.067 24.78 120.331 24.924C120.595 25.044 120.811 25.176 120.979 25.32C121.171 25.464 121.267 25.596 121.267 25.716C120.787 26.724 120.343 27.744 119.935 28.776C119.527 29.784 119.179 30.756 118.891 31.692C118.603 32.628 118.375 33.504 118.207 34.32C118.063 35.136 117.991 35.844 117.991 36.444C117.991 37.116 118.063 37.68 118.207 38.136C118.351 38.568 118.591 38.88 118.927 39.072C118.639 39.264 118.267 39.42 117.811 39.54C117.355 39.66 116.947 39.72 116.587 39.72C115.291 39.72 114.643 38.832 114.643 37.056C114.643 35.688 115.099 33.816 116.011 31.44C115.531 32.544 114.979 33.588 114.355 34.572C113.731 35.532 113.095 36.384 112.447 37.128C111.799 37.872 111.139 38.484 110.467 38.964C109.819 39.42 109.219 39.696 108.667 39.792C107.779 39.744 107.059 39.324 106.507 38.532C105.955 37.716 105.679 36.684 105.679 35.436C105.679 34.092 105.967 32.676 106.543 31.188C107.119 29.7 107.851 28.32 108.739 27.048C109.651 25.776 110.635 24.72 111.691 23.88C112.747 23.016 113.767 22.56 114.751 22.512C114.991 22.584 115.255 22.728 115.543 22.944C115.855 23.16 116.143 23.412 116.407 23.7C116.695 23.988 116.935 24.288 117.127 24.6C117.319 24.888 117.427 25.14 117.451 25.356C116.491 25.5 115.495 25.968 114.463 26.76C113.455 27.552 112.531 28.512 111.691 29.64C110.875 30.744 110.203 31.932 109.675 33.204C109.147 34.476 108.883 35.664 108.883 36.768C108.883 37.224 109.051 37.512 109.387 37.632C110.083 37.488 110.887 36.9 111.799 35.868C112.711 34.812 113.815 33.192 115.111 31.008C115.351 30.576 115.615 30.096 115.903 29.568C116.215 29.04 116.527 28.488 116.839 27.912C117.151 27.336 117.451 26.76 117.739 26.184C118.051 25.584 118.339 25.008 118.603 24.456ZM124.62 25.212C124.5 25.068 124.392 24.768 124.296 24.312C124.2 23.832 124.152 23.424 124.152 23.088C124.776 23.136 125.376 23.184 125.952 23.232C126.528 23.256 127.056 23.28 127.536 23.304C127.896 22.584 128.28 21.876 128.688 21.18C129.12 20.46 129.528 19.812 129.912 19.236C130.32 18.636 130.692 18.132 131.028 17.724C131.388 17.316 131.664 17.052 131.856 16.932C132.096 16.932 132.396 16.98 132.756 17.076C133.14 17.148 133.524 17.256 133.908 17.4C134.292 17.52 134.64 17.652 134.952 17.796C135.264 17.94 135.48 18.084 135.6 18.228C134.88 19.14 134.256 19.992 133.728 20.784C133.224 21.552 132.672 22.44 132.072 23.448C132.552 23.448 133.032 23.436 133.512 23.412C134.016 23.388 134.52 23.352 135.024 23.304C135.144 23.424 135.24 23.58 135.312 23.772C135.384 23.94 135.42 24.12 135.42 24.312C134.244 24.744 132.816 24.984 131.136 25.032C130.536 26.184 129.996 27.336 129.516 28.488C129.06 29.616 128.664 30.708 128.328 31.764C128.016 32.82 127.764 33.816 127.572 34.752C127.404 35.688 127.32 36.528 127.32 37.272C127.32 38.328 127.716 38.916 128.508 39.036C129.228 38.94 129.912 38.76 130.56 38.496C131.208 38.232 131.784 37.896 132.288 37.488C132.432 37.704 132.516 37.884 132.54 38.028C132.396 38.244 132.144 38.496 131.784 38.784C131.448 39.072 131.076 39.348 130.668 39.612C130.26 39.9 129.864 40.14 129.48 40.332C129.096 40.524 128.808 40.632 128.616 40.656C128.016 40.632 127.416 40.5 126.816 40.26C126.216 40.02 125.664 39.72 125.16 39.36C124.68 39 124.284 38.604 123.972 38.172C123.66 37.716 123.504 37.272 123.504 36.84C123.504 36.264 123.576 35.544 123.72 34.68C123.888 33.792 124.116 32.832 124.404 31.8C124.692 30.768 125.028 29.688 125.412 28.56C125.796 27.432 126.216 26.316 126.672 25.212H124.62ZM147.572 24.672C147.548 25.128 147.464 25.608 147.32 26.112C147.2 26.592 147.044 27.036 146.852 27.444C146.66 27.828 146.456 28.152 146.24 28.416C146.024 28.68 145.82 28.812 145.628 28.812C145.364 28.788 145.208 28.608 145.16 28.272C145.16 28.2 145.184 28.092 145.232 27.948C145.304 27.78 145.376 27.6 145.448 27.408C145.52 27.216 145.58 27.024 145.628 26.832C145.7 26.64 145.736 26.472 145.736 26.328C145.736 25.992 145.652 25.716 145.484 25.5C145.34 25.26 145.136 25.14 144.872 25.14C143.912 25.14 143.18 25.74 142.676 26.94C142.172 28.14 141.92 29.904 141.92 32.232C141.92 32.472 141.932 32.616 141.956 32.664C142.46 32.64 142.904 32.628 143.288 32.628C143.696 32.604 144.092 32.592 144.476 32.592C144.5 32.64 144.512 32.736 144.512 32.88C144.512 33.096 144.464 33.252 144.368 33.348C143.816 33.468 143.372 33.576 143.036 33.672C142.724 33.744 142.484 33.816 142.316 33.888C142.148 33.96 142.04 34.044 141.992 34.14C141.968 34.212 141.956 34.32 141.956 34.464C141.956 34.656 141.956 34.848 141.956 35.04C141.98 35.232 141.992 35.472 141.992 35.76C141.992 37.776 141.44 39.396 140.336 40.62C139.256 41.844 137.744 42.552 135.8 42.744C135.464 42.72 135.116 42.624 134.756 42.456C134.396 42.288 134.048 42.072 133.712 41.808C133.4 41.544 133.124 41.244 132.884 40.908C132.644 40.596 132.476 40.272 132.38 39.936C132.38 39.024 132.572 38.16 132.956 37.344C133.34 36.504 133.856 35.772 134.504 35.148C135.176 34.5 135.956 33.984 136.844 33.6C137.756 33.192 138.74 32.952 139.796 32.88C139.796 32.28 139.736 31.692 139.616 31.116C139.496 30.54 139.364 29.988 139.22 29.46C139.1 28.908 138.98 28.38 138.86 27.876C138.74 27.348 138.68 26.832 138.68 26.328C138.68 25.68 138.812 25.044 139.076 24.42C139.34 23.772 139.688 23.184 140.12 22.656C140.552 22.104 141.056 21.636 141.632 21.252C142.208 20.868 142.808 20.604 143.432 20.46C143.696 20.532 144.044 20.748 144.476 21.108C144.932 21.444 145.376 21.828 145.808 22.26C146.24 22.692 146.624 23.136 146.96 23.592C147.296 24.024 147.5 24.384 147.572 24.672ZM135.692 41.088C136.268 40.848 136.808 40.5 137.312 40.044C137.84 39.588 138.296 39.072 138.68 38.496C139.064 37.92 139.364 37.308 139.58 36.66C139.82 36.012 139.94 35.376 139.94 34.752C139.46 34.824 138.932 35.052 138.356 35.436C137.78 35.796 137.24 36.24 136.736 36.768C136.232 37.272 135.812 37.8 135.476 38.352C135.14 38.904 134.972 39.384 134.972 39.792C134.972 40.32 135.212 40.752 135.692 41.088ZM158.732 37.128C159.092 36.336 159.524 35.316 160.028 34.068C160.532 32.82 161.06 31.476 161.612 30.036C162.164 28.572 162.728 27.084 163.304 25.572C163.88 24.036 164.42 22.584 164.924 21.216C165.428 19.848 165.86 18.624 166.22 17.544C166.604 16.464 166.88 15.636 167.048 15.06C165.536 15.684 164.24 16.632 163.16 17.904C162.08 19.176 161.264 20.772 160.712 22.692C160.16 22.5 159.656 22.164 159.2 21.684C158.744 21.18 158.444 20.556 158.3 19.812C158.54 18.708 158.984 17.7 159.632 16.788C160.304 15.876 161.144 15.096 162.152 14.448C163.16 13.8 164.324 13.308 165.644 12.972C166.964 12.612 168.38 12.432 169.892 12.432C171.812 12.432 173.576 12.72 175.184 13.296C176.792 13.848 178.172 14.628 179.324 15.636C180.476 16.644 181.376 17.856 182.024 19.272C182.672 20.688 182.996 22.26 182.996 23.988C182.996 26.34 182.564 28.584 181.7 30.72C180.836 32.856 179.66 34.74 178.172 36.372C176.708 38.004 175.004 39.3 173.06 40.26C171.116 41.244 169.076 41.736 166.94 41.736C164.972 41.736 163.28 41.34 161.864 40.548C160.472 39.78 159.428 38.64 158.732 37.128ZM171.44 14.232C170.24 14.232 169.1 14.4 168.02 14.736C169.076 15.12 169.952 15.528 170.648 15.96C171.344 16.368 171.824 16.692 172.088 16.932C171.896 17.196 171.608 17.664 171.224 18.336C170.864 19.008 170.432 19.824 169.928 20.784C169.448 21.744 168.932 22.8 168.38 23.952C167.828 25.08 167.288 26.244 166.76 27.444C165.392 30.492 164.396 32.892 163.772 34.644C163.172 36.396 162.872 37.608 162.872 38.28C163.208 38.4 163.616 38.484 164.096 38.532C164.576 38.58 165.092 38.604 165.644 38.604C167.588 38.604 169.424 38.16 171.152 37.272C172.904 36.36 174.428 35.148 175.724 33.636C177.044 32.124 178.076 30.372 178.82 28.38C179.588 26.364 179.972 24.252 179.972 22.044C179.972 19.572 179.204 17.652 177.668 16.284C176.132 14.916 174.056 14.232 171.44 14.232ZM197.083 24.096C196.987 25.584 196.723 26.868 196.291 27.948C195.859 29.004 195.235 29.94 194.419 30.756C193.627 31.548 192.655 32.268 191.503 32.916C190.351 33.564 189.007 34.188 187.471 34.788C187.471 34.932 187.459 35.088 187.435 35.256C187.435 35.4 187.435 35.556 187.435 35.724C187.435 36.036 187.459 36.36 187.507 36.696C187.555 37.032 187.639 37.344 187.759 37.632C187.879 37.92 188.047 38.16 188.263 38.352C188.479 38.52 188.755 38.604 189.091 38.604C189.739 38.604 190.375 38.46 190.999 38.172C191.623 37.884 192.211 37.536 192.763 37.128C193.339 36.696 193.867 36.24 194.347 35.76C194.851 35.256 195.295 34.8 195.679 34.392C195.919 34.608 196.123 34.812 196.291 35.004C195.211 36.444 194.023 37.644 192.727 38.604C191.455 39.54 190.243 40.14 189.091 40.404C187.435 40.212 186.139 39.612 185.203 38.604C184.291 37.572 183.835 36.336 183.835 34.896C183.835 33.912 183.967 32.916 184.231 31.908C184.519 30.876 184.903 29.892 185.383 28.956C185.887 27.996 186.463 27.096 187.111 26.256C187.783 25.416 188.491 24.684 189.235 24.06C190.003 23.436 190.783 22.944 191.575 22.584C192.391 22.224 193.195 22.044 193.987 22.044C195.091 22.188 196.123 22.872 197.083 24.096ZM194.599 25.284C193.951 25.38 193.279 25.644 192.583 26.076C191.887 26.508 191.227 27.084 190.603 27.804C190.003 28.524 189.451 29.364 188.947 30.324C188.443 31.284 188.047 32.316 187.759 33.42C189.679 32.46 191.275 31.284 192.547 29.892C193.819 28.476 194.503 26.94 194.599 25.284ZM200.628 25.212C200.508 25.068 200.4 24.768 200.304 24.312C200.208 23.832 200.16 23.424 200.16 23.088C200.784 23.136 201.384 23.184 201.96 23.232C202.536 23.256 203.064 23.28 203.544 23.304C203.904 22.584 204.288 21.876 204.696 21.18C205.128 20.46 205.536 19.812 205.92 19.236C206.328 18.636 206.7 18.132 207.036 17.724C207.396 17.316 207.672 17.052 207.864 16.932C208.104 16.932 208.404 16.98 208.764 17.076C209.148 17.148 209.532 17.256 209.916 17.4C210.3 17.52 210.648 17.652 210.96 17.796C211.272 17.94 211.488 18.084 211.608 18.228C210.888 19.14 210.264 19.992 209.736 20.784C209.232 21.552 208.68 22.44 208.08 23.448C208.56 23.448 209.04 23.436 209.52 23.412C210.024 23.388 210.528 23.352 211.032 23.304C211.152 23.424 211.248 23.58 211.32 23.772C211.392 23.94 211.428 24.12 211.428 24.312C210.252 24.744 208.824 24.984 207.144 25.032C206.544 26.184 206.004 27.336 205.524 28.488C205.068 29.616 204.672 30.708 204.336 31.764C204.024 32.82 203.772 33.816 203.58 34.752C203.412 35.688 203.328 36.528 203.328 37.272C203.328 38.328 203.724 38.916 204.516 39.036C205.236 38.94 205.92 38.76 206.568 38.496C207.216 38.232 207.792 37.896 208.296 37.488C208.44 37.704 208.524 37.884 208.548 38.028C208.404 38.244 208.152 38.496 207.792 38.784C207.456 39.072 207.084 39.348 206.676 39.612C206.268 39.9 205.872 40.14 205.488 40.332C205.104 40.524 204.816 40.632 204.624 40.656C204.024 40.632 203.424 40.5 202.824 40.26C202.224 40.02 201.672 39.72 201.168 39.36C200.688 39 200.292 38.604 199.98 38.172C199.668 37.716 199.512 37.272 199.512 36.84C199.512 36.264 199.584 35.544 199.728 34.68C199.896 33.792 200.124 32.832 200.412 31.8C200.7 30.768 201.036 29.688 201.42 28.56C201.804 27.432 202.224 26.316 202.68 25.212H200.628ZM224.048 24.096C223.952 25.584 223.688 26.868 223.256 27.948C222.824 29.004 222.2 29.94 221.384 30.756C220.592 31.548 219.62 32.268 218.468 32.916C217.316 33.564 215.972 34.188 214.436 34.788C214.436 34.932 214.424 35.088 214.4 35.256C214.4 35.4 214.4 35.556 214.4 35.724C214.4 36.036 214.424 36.36 214.472 36.696C214.52 37.032 214.604 37.344 214.724 37.632C214.844 37.92 215.012 38.16 215.228 38.352C215.444 38.52 215.72 38.604 216.056 38.604C216.704 38.604 217.34 38.46 217.964 38.172C218.588 37.884 219.176 37.536 219.728 37.128C220.304 36.696 220.832 36.24 221.312 35.76C221.816 35.256 222.26 34.8 222.644 34.392C222.884 34.608 223.088 34.812 223.256 35.004C222.176 36.444 220.988 37.644 219.692 38.604C218.42 39.54 217.208 40.14 216.056 40.404C214.4 40.212 213.104 39.612 212.168 38.604C211.256 37.572 210.8 36.336 210.8 34.896C210.8 33.912 210.932 32.916 211.196 31.908C211.484 30.876 211.868 29.892 212.348 28.956C212.852 27.996 213.428 27.096 214.076 26.256C214.748 25.416 215.456 24.684 216.2 24.06C216.968 23.436 217.748 22.944 218.54 22.584C219.356 22.224 220.16 22.044 220.952 22.044C222.056 22.188 223.088 22.872 224.048 24.096ZM221.564 25.284C220.916 25.38 220.244 25.644 219.548 26.076C218.852 26.508 218.192 27.084 217.568 27.804C216.968 28.524 216.416 29.364 215.912 30.324C215.408 31.284 215.012 32.316 214.724 33.42C216.644 32.46 218.24 31.284 219.512 29.892C220.784 28.476 221.468 26.94 221.564 25.284ZM225.931 32.664C225.931 31.296 226.207 29.976 226.759 28.704C227.335 27.408 228.079 26.268 228.991 25.284C229.927 24.276 230.983 23.472 232.159 22.872C233.359 22.248 234.595 21.936 235.867 21.936C237.115 21.936 238.075 22.248 238.747 22.872C239.419 23.496 239.755 24.384 239.755 25.536C239.755 26.088 239.671 26.628 239.503 27.156C239.359 27.66 239.155 28.116 238.891 28.524C238.651 28.932 238.363 29.268 238.027 29.532C237.691 29.772 237.355 29.892 237.019 29.892C236.731 29.892 236.431 29.808 236.119 29.64C235.831 29.448 235.591 29.208 235.399 28.92C237.007 27.456 237.811 26.124 237.811 24.924C237.811 24.228 237.535 23.88 236.983 23.88C236.503 23.88 235.903 24.108 235.183 24.564C234.463 25.02 233.767 25.62 233.095 26.364C232.063 27.516 231.271 28.8 230.719 30.216C230.191 31.608 229.927 33.072 229.927 34.608C229.927 36.552 230.359 37.716 231.223 38.1C231.583 38.052 232.003 37.944 232.483 37.776C232.963 37.608 233.479 37.392 234.031 37.128C234.583 36.84 235.147 36.516 235.723 36.156C236.323 35.796 236.899 35.412 237.451 35.004C237.547 35.076 237.631 35.184 237.703 35.328C237.775 35.472 237.811 35.604 237.811 35.724C237.403 36.228 236.935 36.72 236.407 37.2C235.879 37.68 235.327 38.124 234.751 38.532C234.175 38.916 233.611 39.24 233.059 39.504C232.531 39.792 232.063 39.972 231.655 40.044C230.863 39.972 230.119 39.72 229.423 39.288C228.727 38.88 228.115 38.34 227.587 37.668C227.083 36.996 226.675 36.228 226.363 35.364C226.075 34.5 225.931 33.6 225.931 32.664ZM242.815 25.212C242.695 25.068 242.587 24.768 242.491 24.312C242.395 23.832 242.347 23.424 242.347 23.088C242.971 23.136 243.571 23.184 244.147 23.232C244.723 23.256 245.251 23.28 245.731 23.304C246.091 22.584 246.475 21.876 246.883 21.18C247.315 20.46 247.723 19.812 248.107 19.236C248.515 18.636 248.887 18.132 249.223 17.724C249.583 17.316 249.859 17.052 250.051 16.932C250.291 16.932 250.591 16.98 250.951 17.076C251.335 17.148 251.719 17.256 252.103 17.4C252.487 17.52 252.835 17.652 253.147 17.796C253.459 17.94 253.675 18.084 253.795 18.228C253.075 19.14 252.451 19.992 251.923 20.784C251.419 21.552 250.867 22.44 250.267 23.448C250.747 23.448 251.227 23.436 251.707 23.412C252.211 23.388 252.715 23.352 253.219 23.304C253.339 23.424 253.435 23.58 253.507 23.772C253.579 23.94 253.615 24.12 253.615 24.312C252.439 24.744 251.011 24.984 249.331 25.032C248.731 26.184 248.191 27.336 247.711 28.488C247.255 29.616 246.859 30.708 246.523 31.764C246.211 32.82 245.959 33.816 245.767 34.752C245.599 35.688 245.515 36.528 245.515 37.272C245.515 38.328 245.911 38.916 246.703 39.036C247.423 38.94 248.107 38.76 248.755 38.496C249.403 38.232 249.979 37.896 250.483 37.488C250.627 37.704 250.711 37.884 250.735 38.028C250.591 38.244 250.339 38.496 249.979 38.784C249.643 39.072 249.271 39.348 248.863 39.612C248.455 39.9 248.059 40.14 247.675 40.332C247.291 40.524 247.003 40.632 246.811 40.656C246.211 40.632 245.611 40.5 245.011 40.26C244.411 40.02 243.859 39.72 243.355 39.36C242.875 39 242.479 38.604 242.167 38.172C241.855 37.716 241.699 37.272 241.699 36.84C241.699 36.264 241.771 35.544 241.915 34.68C242.083 33.792 242.311 32.832 242.599 31.8C242.887 30.768 243.223 29.688 243.607 28.56C243.991 27.432 244.411 26.316 244.867 25.212H242.815ZM257.595 40.26C256.227 40.116 255.135 39.516 254.319 38.46C253.503 37.404 253.095 36.06 253.095 34.428C253.095 33.468 253.239 32.472 253.527 31.44C253.815 30.408 254.223 29.412 254.751 28.452C255.279 27.468 255.903 26.544 256.623 25.68C257.343 24.816 258.123 24.072 258.963 23.448C260.283 22.464 261.519 21.972 262.671 21.972C263.439 22.38 264.195 23.232 264.939 24.528C265.059 24.528 265.167 24.528 265.263 24.528C265.359 24.504 265.467 24.492 265.587 24.492C266.859 24.492 267.495 25.62 267.495 27.876C267.495 29.388 267.243 30.828 266.739 32.196C266.259 33.54 265.575 34.764 264.687 35.868C263.823 36.972 262.779 37.908 261.555 38.676C260.355 39.42 259.035 39.948 257.595 40.26ZM259.431 28.92C259.023 29.472 258.639 30.072 258.279 30.72C257.919 31.368 257.607 32.028 257.343 32.7C257.079 33.348 256.875 33.984 256.731 34.608C256.587 35.208 256.515 35.748 256.515 36.228C256.515 36.804 256.611 37.356 256.803 37.884C256.995 38.412 257.211 38.712 257.451 38.784C258.531 38.544 259.515 38.1 260.403 37.452C261.315 36.78 262.095 35.952 262.743 34.968C263.415 33.984 263.931 32.868 264.291 31.62C264.675 30.372 264.867 29.04 264.867 27.624C264.867 27 264.831 26.508 264.759 26.148C264.687 25.788 264.567 25.476 264.399 25.212C263.343 25.524 262.395 26.028 261.555 26.724C260.739 27.42 260.031 28.152 259.431 28.92ZM268.374 38.28C268.494 37.584 268.698 36.672 268.986 35.544C269.298 34.392 269.658 33.18 270.066 31.908C270.474 30.612 270.906 29.316 271.362 28.02C271.818 26.724 272.262 25.56 272.694 24.528C273.006 23.784 273.282 23.208 273.522 22.8C273.762 22.368 274.026 22.008 274.314 21.72C274.65 21.768 274.998 21.852 275.358 21.972C275.718 22.092 276.066 22.236 276.402 22.404C276.738 22.572 277.038 22.752 277.302 22.944C277.566 23.112 277.77 23.28 277.914 23.448C277.266 24.216 276.69 25.092 276.186 26.076C275.706 27.06 275.214 28.32 274.71 29.856C276.006 28.704 277.146 27.6 278.13 26.544C279.138 25.488 280.074 24.312 280.938 23.016C281.082 22.896 281.334 22.836 281.694 22.836C282.03 22.836 282.354 22.896 282.666 23.016C282.978 23.112 283.194 23.256 283.314 23.448C282.882 24.6 282.666 25.74 282.666 26.868C282.666 27.924 282.822 28.716 283.134 29.244C283.11 29.388 282.942 29.664 282.63 30.072C282.342 30.48 282.018 30.864 281.658 31.224C281.01 30.888 280.434 30.432 279.93 29.856C279.426 29.256 279.054 28.608 278.814 27.912C277.686 28.704 276.726 29.484 275.934 30.252C275.142 30.996 274.458 31.836 273.882 32.772C273.33 33.684 272.85 34.74 272.442 35.94C272.058 37.14 271.686 38.568 271.326 40.224C271.11 40.2 270.846 40.116 270.534 39.972C270.246 39.852 269.946 39.696 269.634 39.504C269.346 39.312 269.082 39.108 268.842 38.892C268.602 38.676 268.446 38.472 268.374 38.28Z" fill="#DADADA"/>
<rect y="52" width="121" height="9" rx="4.5" fill="#A606A9"/>
</svg>
